<svg xmlns="http://www.w3.org/2000/svg">
   <line x1="2.000" y1="79.942" x2="7.000" y2="71.282" style="stroke:black;stroke-width:1" />
   <line x1="7.000" y1="71.282" x2="2.000" y2="62.622" style="stroke:black;stroke-width:1" />
   <line x1="2.000" y1="62.622" x2="12.000" y2="62.622" style="stroke:black;stroke-width:1" />
   <line x1="12.000" y1="62.622" x2="17.000" y2="53.962" style="stroke:black;stroke-width:1" />
   <line x1="17.000" y1="53.962" x2="12.000" y2="45.301" style="stroke:black;stroke-width:1" />
   <line x1="12.000" y1="45.301" x2="2.000" y2="45.301" style="stroke:black;stroke-width:1" />
   <line x1="2.000" y1="45.301" x2="7.000" y2="36.641" style="stroke:black;stroke-width:1" />
   <line x1="7.000" y1="36.641" x2="2.000" y2="27.981" style="stroke:black;stroke-width:1" />
   <line x1="2.000" y1="27.981" x2="12.000" y2="27.981" style="stroke:black;stroke-width:1" />
   <line x1="12.000" y1="27.981" x2="17.000" y2="19.321" style="stroke:black;stroke-width:1" />
   <line x1="17.000" y1="19.321" x2="22.000" y2="27.981" style="stroke:black;stroke-width:1" />
   <line x1="22.000" y1="27.981" x2="32.000" y2="27.981" style="stroke:black;stroke-width:1" />
   <line x1="32.000" y1="27.981" x2="37.000" y2="19.321" style="stroke:black;stroke-width:1" />
   <line x1="37.000" y1="19.321" x2="32.000" y2="10.660" style="stroke:black;stroke-width:1" />
   <line x1="32.000" y1="10.660" x2="42.000" y2="10.660" style="stroke:black;stroke-width:1" />
   <line x1="42.000" y1="10.660" x2="47.000" y2="2.000" style="stroke:black;stroke-width:1" />
   <line x1="47.000" y1="2.000" x2="52.000" y2="10.660" style="stroke:black;stroke-width:1" />
   <line x1="52.000" y1="10.660" x2="62.000" y2="10.660" style="stroke:black;stroke-width:1" />
   <line x1="62.000" y1="10.660" x2="57.000" y2="19.321" style="stroke:black;stroke-width:1" />
   <line x1="57.000" y1="19.321" x2="62.000" y2="27.981" style="stroke:black;stroke-width:1" />
   <line x1="62.000" y1="27.981" x2="72.000" y2="27.981" style="stroke:black;stroke-width:1" />
   <line x1="72.000" y1="27.981" x2="77.000" y2="19.321" style="stroke:black;stroke-width:1" />
   <line x1="77.000" y1="19.321" x2="82.000" y2="27.981" style="stroke:black;stroke-width:1" />
   <line x1="82.000" y1="27.981" x2="92.000" y2="27.981" style="stroke:black;stroke-width:1" />
   <line x1="92.000" y1="27.981" x2="87.000" y2="36.641" style="stroke:black;stroke-width:1" />
   <line x1="87.000" y1="36.641" x2="92.000" y2="45.301" style="stroke:black;stroke-width:1" />
   <line x1="92.000" y1="45.301" x2="82.000" y2="45.301" style="stroke:black;stroke-width:1" />
   <line x1="82.000" y1="45.301" x2="77.000" y2="53.962" style="stroke:black;stroke-width:1" />
   <line x1="77.000" y1="53.962" x2="82.000" y2="62.622" style="stroke:black;stroke-width:1" />
   <line x1="82.000" y1="62.622" x2="92.000" y2="62.622" style="stroke:black;stroke-width:1" />
   <line x1="92.000" y1="62.622" x2="87.000" y2="71.282" style="stroke:black;stroke-width:1" />
   <line x1="87.000" y1="71.282" x2="92.000" y2="79.942" style="stroke:black;stroke-width:1" />
   <line x1="92.000" y1="79.942" x2="82.000" y2="79.942" style="stroke:black;stroke-width:1" />
   <line x1="82.000" y1="79.942" x2="77.000" y2="88.603" style="stroke:black;stroke-width:1" />
   <line x1="77.000" y1="88.603" x2="72.000" y2="79.942" style="stroke:black;stroke-width:1" />
   <line x1="72.000" y1="79.942" x2="62.000" y2="79.942" style="stroke:black;stroke-width:1" />
   <line x1="62.000" y1="79.942" x2="57.000" y2="88.603" style="stroke:black;stroke-width:1" />
   <line x1="57.000" y1="88.603" x2="62.000" y2="97.263" style="stroke:black;stroke-width:1" />
   <line x1="62.000" y1="97.263" x2="52.000" y2="97.263" style="stroke:black;stroke-width:1" />
   <line x1="52.000" y1="97.263" x2="47.000" y2="105.923" style="stroke:black;stroke-width:1" />
   <line x1="47.000" y1="105.923" x2="42.000" y2="97.263" style="stroke:black;stroke-width:1" />
   <line x1="42.000" y1="97.263" x2="32.000" y2="97.263" style="stroke:black;stroke-width:1" />
   <line x1="32.000" y1="97.263" x2="37.000" y2="88.603" style="stroke:black;stroke-width:1" />
   <line x1="37.000" y1="88.603" x2="32.000" y2="79.942" style="stroke:black;stroke-width:1" />
   <line x1="32.000" y1="79.942" x2="22.000" y2="79.942" style="stroke:black;stroke-width:1" />
   <line x1="22.000" y1="79.942" x2="17.000" y2="88.603" style="stroke:black;stroke-width:1" />
   <line x1="17.000" y1="88.603" x2="12.000" y2="79.942" style="stroke:black;stroke-width:1" />
   <line x1="12.000" y1="79.942" x2="2.000" y2="79.942" style="stroke:black;stroke-width:1" />
</svg>